# xmcd
#
# Track frame offsets:
#	150
#	17054
#	31197
#	47050
#	64094
#	72945
#	99027
#	117963
#	130992
#	147457
#	162489
#	190362
#	205755
#	219282
#	234479
#	245550
#	258674
#	271922
#	309240
#	324794
#
# Disc length: 4624 seconds
#
# Revision: 1
# Processed by: cddbd v1.5.2PL0 Copyright (c) Steve Scherf et al.
# Submitted via: EasyCDDAExtractor 11.0.0.1
#
DISCID=1b120e14
DTITLE=Banda Calypso - Ao vivo em Caruaru
DYEAR=2009
DGENRE=Calypso
TTITLE0=Vida Minha
TTITLE1=Louca Sedução
TTITLE2=Não, Não
TTITLE3=Xonou, Xonou
TTITLE4=Tchau Pra Você
TTITLE5=Pout-Pourri: Solidão - Temporal - Passe de Mágica
TTITLE6=Pra Te Esquecer
TTITLE7=Pra Me Conquistar
TTITLE8=Minha Estrela
TTITLE9=Doce Mel
TTITLE10=Pout-pourri: Tudo de Novo - Dois Corações - Choro Por Você
TTITLE11=Agora Chora
TTITLE12=A Saudade é Um Prego
TTITLE13=Parangolado
TTITLE14=Lágrimas de Sangue
TTITLE15=Cúmbia Do Amor
TTITLE16=Isso é Calypso
TTITLE17=Pout-Pourri: Fala Pra Mim - Odalisca - Deusa da Paixão - A Lua Me Tra
TTITLE17=iu
TTITLE18=Chá de Maracujá
TTITLE19=Acelerou
EXTD=
EXTT0=
EXTT1=
EXTT2=
EXTT3=
EXTT4=
EXTT5=
EXTT6=
EXTT7=
EXTT8=
EXTT9=
EXTT10=
EXTT11=
EXTT12=
EXTT13=
EXTT14=
EXTT15=
EXTT16=
EXTT17=
EXTT18=
EXTT19=
PLAYORDER=
